<?xml version="1.0" encoding="UTF-8"?>
<svg version="1.1" xmlns="http://www.w3.org/2000/svg" width="500" height="500">
<path d="M0 0 C1.44872257 1.17378252 2.88601549 2.36179002 4.3125 3.5625 C5.11171875 4.22765625 5.9109375 4.8928125 6.734375 5.578125 C17.35259637 14.74540929 25.42631155 25.38497627 32.3125 37.5625 C32.84617187 38.48160156 33.37984375 39.40070313 33.9296875 40.34765625 C37.28029899 46.51937845 39.52325134 52.86844463 41.5625 59.5625 C41.80887207 60.36888916 42.05524414 61.17527832 42.30908203 62.00610352 C45.36116936 72.50912277 46.6850882 82.82338936 46.625 93.75 C46.61936035 94.83933838 46.6137207 95.92867676 46.60791016 97.05102539 C46.12164046 129.67201852 32.37734442 158.18877972 9.35375977 180.93920898 C0.02964142 189.82615255 -10.29687426 196.26992067 -21.8984375 201.7734375 C-22.51549561 202.07040527 -23.13255371 202.36737305 -23.76831055 202.67333984 C-25.09695403 203.28890015 -26.44428953 203.86507613 -27.80395508 204.40869141 C-33.49914642 206.84356822 -35.33894558 209.54773199 -37.625 215.1875 C-40.943491 222.51814511 -44.82778775 227.96456184 -50.6875 233.5625 C-51.39648438 234.27921875 -52.10546875 234.9959375 -52.8359375 235.734375 C-64.21010334 246.65685916 -79.62977113 251.5706856 -95.1875 252.0625 C-109.91398582 251.59696304 -124.2888992 247.09214103 -135.6875 237.5625 C-135.52894531 238.54863281 -135.37039063 239.53476562 -135.20703125 240.55078125 C-132.98039339 256.29544431 -134.99844987 270.54673737 -144.6875 283.5625 C-154.5583507 295.07279995 -166.58044092 302.25019504 -181.6875 304.5625 C-199.44582676 305.73350509 -214.87922212 302.83209758 -229.0625 291.25 C-236.72665455 283.989222 -241.03868708 275.34871714 -244.6875 265.5625 C-245.03941406 266.05878906 -245.39132813 266.55507813 -245.75390625 267.06640625 C-256.60947013 282.0034354 -271.57199502 291.58377282 -289.82421875 295.0546875 C-309.4955237 297.64039998 -328.35720995 294.24568074 -344.5 282.125 C-345.91076734 280.95528104 -347.30764826 279.76853321 -348.6875 278.5625 C-349.29078125 278.05332031 -349.8940625 277.54414063 -350.515625 277.01953125 C-361.67061348 266.84437284 -367.86515896 252.06208374 -368.84375 237.1875 C-369.47519169 219.08617166 -362.35852779 204.01426193 -350.6875 190.5625 C-349.34818933 188.90063283 -348.01329131 187.2351724 -346.6875 185.5625 C-347.63109375 184.72332031 -347.63109375 184.72332031 -348.59375 183.8671875 C-361.52923083 171.7499148 -370.17100816 154.75355932 -371.0234375 136.8359375 C-371.40772167 116.0761927 -365.76502168 98.22303617 -351.6875 82.5625 C-351.16929687 81.95148438 -350.65109375 81.34046875 -350.1171875 80.7109375 C-337.68236819 67.02638761 -318.07084032 59.25075823 -299.94921875 58.2421875 C-279.35588737 57.54946996 -260.32046733 62.53207534 -244.6875 76.5625 C-244.00945312 77.29082031 -243.33140625 78.01914063 -242.6328125 78.76953125 C-240.76076999 80.90136399 -240.76076999 80.90136399 -237.6875 80.5625 C-236.09185995 78.99300419 -236.09185995 78.99300419 -234.5625 76.9375 C-228.35739202 69.59002905 -220.16551721 64.48223728 -210.6875 62.5625 C-202.8317478 61.94115063 -194.3780714 61.64764113 -186.6875 63.5625 C-186.275 62.43714844 -185.8625 61.31179687 -185.4375 60.15234375 C-179.72642666 44.85015488 -173.15594528 31.23752933 -162.6875 18.5625 C-161.87796875 17.57636719 -161.0684375 16.59023437 -160.234375 15.57421875 C-119.99642318 -30.86808791 -48.51866836 -36.55746887 0 0 Z " fill="#BCCAD3" transform="translate(414.6875,59.4375)"/>
<path d="M0 0 C1.44872257 1.17378252 2.88601549 2.36179002 4.3125 3.5625 C5.51132812 4.56023438 5.51132812 4.56023438 6.734375 5.578125 C17.35259637 14.74540929 25.42631155 25.38497627 32.3125 37.5625 C32.84617187 38.48160156 33.37984375 39.40070313 33.9296875 40.34765625 C37.28029899 46.51937845 39.52325134 52.86844463 41.5625 59.5625 C41.80887207 60.36888916 42.05524414 61.17527832 42.30908203 62.00610352 C45.36116936 72.50912277 46.6850882 82.82338936 46.625 93.75 C46.61936035 94.83933838 46.6137207 95.92867676 46.60791016 97.05102539 C46.12164046 129.67201852 32.37734442 158.18877972 9.35375977 180.93920898 C-2.40764292 192.14916129 -16.85153161 201.47579848 -32.6875 205.5625 C-32.6875 202.5925 -32.6875 199.6225 -32.6875 196.5625 C-32.0275 196.5625 -31.3675 196.5625 -30.6875 196.5625 C-30.79792944 193.33266338 -30.92842659 190.10393474 -31.0625 186.875 C-31.10890625 185.50698242 -31.10890625 185.50698242 -31.15625 184.11132812 C-31.35823878 179.48241867 -31.68847204 175.81246594 -33.6875 171.5625 C-33.6875 170.5725 -33.6875 169.5825 -33.6875 168.5625 C-34.3475 168.5625 -35.0075 168.5625 -35.6875 168.5625 C-36.0175 165.2625 -36.3475 161.9625 -36.6875 158.5625 C-37.3475 158.5625 -38.0075 158.5625 -38.6875 158.5625 C-40.125 156.515625 -40.125 156.515625 -41.6875 153.8125 C-42.4609375 152.48992187 -42.4609375 152.48992187 -43.25 151.140625 C-44.45900479 148.9723012 -45.60263077 146.79482706 -46.6875 144.5625 C-47.3475 144.5625 -48.0075 144.5625 -48.6875 144.5625 C-48.6875 143.2425 -48.6875 141.9225 -48.6875 140.5625 C-48.0275 140.5625 -47.3675 140.5625 -46.6875 140.5625 C-46.543125 139.799375 -46.39875 139.03625 -46.25 138.25 C-45.6875 135.5625 -45.6875 135.5625 -44.6875 132.5625 C-44.0275 132.5625 -43.3675 132.5625 -42.6875 132.5625 C-40.40855381 119.11115906 -39.49924033 103.07271631 -45.6875 90.5625 C-46.98183717 88.865371 -48.3110532 87.19374178 -49.6875 85.5625 C-50.120625 84.82 -50.55375 84.0775 -51 83.3125 C-55.56215147 75.44120852 -55.56215147 75.44120852 -62.6875 70.5625 C-64.35416667 68.89583333 -66.02083333 67.22916667 -67.6875 65.5625 C-73.75853355 61.04151757 -79.22753087 59.4576963 -86.6875 58.5625 C-86.6875 57.9025 -86.6875 57.2425 -86.6875 56.5625 C-98.84198493 56.28237103 -110.62379525 57.07936616 -122.6875 58.5625 C-122.6875 59.2225 -122.6875 59.8825 -122.6875 60.5625 C-124.0075 60.5625 -125.3275 60.5625 -126.6875 60.5625 C-126.6875 61.2225 -126.6875 61.8825 -126.6875 62.5625 C-127.6775 62.871875 -127.6775 62.871875 -128.6875 63.1875 C-132.13216433 64.76630448 -134.80113842 66.80618139 -137.7734375 69.1328125 C-139.6875 70.5625 -139.6875 70.5625 -142.3125 71.875 C-146.17718566 74.62096086 -148.22190508 78.57368898 -150.6875 82.5625 C-151.9779858 84.58408763 -153.26965074 86.60492304 -154.5625 88.625 C-155.60514553 90.27021339 -156.64716892 91.91582211 -157.6875 93.5625 C-160.88849629 91.42850247 -161.05848836 91.15972783 -162.0625 87.75 C-163.48035922 83.65888537 -165.40779435 81.4517645 -168.6875 78.5625 C-169.47125 77.758125 -170.255 76.95375 -171.0625 76.125 C-177.55421219 69.59422012 -177.55421219 69.59422012 -185.6875 65.5625 C-185.18445147 59.68924506 -183.96867861 55.08192493 -181.5 49.75 C-181.18466309 49.05422852 -180.86932617 48.35845703 -180.54443359 47.64160156 C-167.09383104 18.33052503 -144.34767951 -4.86742994 -114.0625 -16.6875 C-75.47025799 -30.65314926 -32.74994229 -24.67617179 0 0 Z " fill="#FEFE03" transform="translate(414.6875,59.4375)"/>
<path d="M0 0 C25.40757392 25.12785751 25.40757392 25.12785751 26.3125 35.625 C26.01384905 38.85043028 25.673671 40.31887656 24 43 C20.36593301 45.84071434 16.43941629 47.37857018 11.8125 47.0625 C6.38590588 45.55017049 4.29215755 43.01002286 1.3125 38.375 C-3.3701061 26.33401288 -3.46832008 12.35589029 0 0 Z " fill="#2EA8DE" transform="translate(369,398)"/>
<path d="M0 0 C25.51752894 25.23660201 25.51752894 25.23660201 26.12890625 35.07421875 C25.89607004 38.89132138 25.27466981 40.72533019 22.5625 43.4375 C17.70941083 46.39670071 13.64986858 47.12489898 8 46 C3.10452036 42.83606964 0.72146798 38.14826961 -0.9375 32.6875 C-3.11314491 22.15845302 -3.43454862 10.24891201 0 0 Z " fill="#2CAAE1" transform="translate(259,402)"/>
<path d="M0 0 C25.43356744 25.20065931 25.43356744 25.20065931 26.15234375 35.09765625 C25.72490805 39.00675006 25.44461891 40.55538109 22.5625 43.4375 C19.24502178 45.46035257 17.47916597 46.15548865 13.625 46.1875 C12.85414063 46.20167969 12.08328125 46.21585937 11.2890625 46.23046875 C7.40821582 45.83973504 5.47498521 44.54695267 2.9375 41.625 C-1.8556795 33.66794312 -2.26970794 24.67222848 -2.3125 15.625 C-2.31797852 14.76890137 -2.32345703 13.91280273 -2.32910156 13.03076172 C-2.27536157 8.30256919 -1.81553237 4.44118277 0 0 Z " fill="#2BA9E0" transform="translate(304,347)"/>
<path d="M0 0 C24.73536 24.50884571 24.73536 24.50884571 26.4375 35.9375 C25.82420811 40.23054324 24.10203687 42.0328343 21 45 C16.42563719 47.28718141 12.9164231 47.34084266 8 46 C1.99968838 41.67419395 -0.33541048 34.70702854 -1.6015625 27.64453125 C-2.56142579 18.86460524 -2.56788399 9.71046661 -1 1 C-0.67 0.67 -0.34 0.34 0 0 Z " fill="#2BA9E0" transform="translate(165,393)"/>
<path d="M0 0 C10.12750851 8.18819837 24.92901832 21.36116491 26.4375 34.9375 C26.35388443 38.39146637 26.02450106 38.96869309 23.75 41.875 C18.98237065 45.55907723 16.17958817 46.63926774 10 46 C4.87288544 43.68777187 2.81028479 40.74413695 0.8125 35.69140625 C-2.15757726 25.85302531 -4.87650925 9.7530185 0 0 Z " fill="#2CA9DF" transform="translate(93,392)"/>
<path d="M0 0 C1.90234375 0.3125 1.90234375 0.3125 4 1 C5.03291676 2.98320018 6.0337499 4.98347806 7 7 C7.99 7.33 8.98 7.66 10 8 C11.16796875 9.99609375 11.16796875 9.99609375 12.1875 12.4375 C12.53167969 13.24058594 12.87585938 14.04367188 13.23046875 14.87109375 C14 17 14 17 14 19 C14.99 18.67 15.98 18.34 17 18 C16.979375 19.093125 16.95875 20.18625 16.9375 21.3125 C16.81455548 24.94384191 16.81455548 24.94384191 18 28 C18.0833804 30.13794525 18.10733747 32.27842009 18.09765625 34.41796875 C18.09443359 35.67158203 18.09121094 36.92519531 18.08789062 38.21679688 C18.07951172 39.52712891 18.07113281 40.83746094 18.0625 42.1875 C18.05748317 43.52278481 18.05292059 44.85807141 18.04882812 46.19335938 C18.03702695 49.46228473 18.02056297 52.73111991 18 56 C17.01 56.495 17.01 56.495 16 57 C16.0314209 55.92069214 16.0314209 55.92069214 16.06347656 54.81958008 C17.2988526 32.49131217 17.2988526 32.49131217 8 13 C6.97388051 11.34928604 5.97691857 9.68029994 5 8 C4.10809606 6.56005869 3.21202303 5.12269404 2.3125 3.6875 C1.87550781 2.99011719 1.43851562 2.29273438 0.98828125 1.57421875 C0.66214844 1.05472656 0.33601563 0.53523437 0 0 Z " fill="#F1F537" transform="translate(357,132)"/>
<path d="M0 0 C12.35450485 11.9202516 20.13594807 26.10347368 26 42 C26.40734375 43.05703125 26.8146875 44.1140625 27.234375 45.203125 C28.00780553 48.02851408 28.03516394 49.30857375 27 52 C26.64808594 51.01902344 26.29617188 50.03804687 25.93359375 49.02734375 C23.2931755 41.76732582 20.51311539 34.59594049 17.3125 27.5625 C17.02753662 26.91853271 16.74257324 26.27456543 16.44897461 25.61108398 C15.71431926 24.03338855 14.86503719 22.51014967 14 21 C13.01 20.67 12.02 20.34 11 20 C10.87625 19.195625 10.7525 18.39125 10.625 17.5625 C10.41875 16.716875 10.2125 15.87125 10 15 C9.34 14.67 8.68 14.34 8 14 C8 13.01 8 12.02 8 11 C7.34 11 6.68 11 6 11 C4.95355934 9.36209288 3.9601817 7.68991979 3 6 C2.443125 5.278125 1.88625 4.55625 1.3125 3.8125 C0 2 0 2 0 0 Z " fill="#F4F53C" transform="translate(429,73)"/>
<path d="M0 0 C0 0.33 0 0.66 0 1 C-5.94 0.67 -11.88 0.34 -18 0 C-18 -0.66 -18 -1.32 -18 -2 C-26.25 -2 -34.5 -2 -43 -2 C-43 -1.34 -43 -0.68 -43 0 C-43.78246094 0.06058594 -44.56492187 0.12117188 -45.37109375 0.18359375 C-46.88896484 0.30927734 -46.88896484 0.30927734 -48.4375 0.4375 C-49.44683594 0.51871094 -50.45617187 0.59992187 -51.49609375 0.68359375 C-53.93640779 0.73211468 -53.93640779 0.73211468 -55 2 C-57.67058851 2.14115161 -60.32432238 2.04247107 -63 2 C-47.2757885 -8.48280767 -17.27819128 -4.50735425 0 0 Z " fill="#F7F63C" transform="translate(373,39)"/>
<path d="M0 0 C0.66 0 1.32 0 2 0 C2 8.91 2 17.82 2 27 C3.65 27 5.3 27 7 27 C7 26.34 7 25.68 7 25 C8.98 25 10.96 25 13 25 C10.03653214 27.47186455 7.45958311 28.66248361 3.75 29.6875 C2.85796875 29.93886719 1.9659375 30.19023437 1.046875 30.44921875 C0.37140625 30.63097656 -0.3040625 30.81273437 -1 31 C-1 28.03 -1 25.06 -1 22 C-0.34 22 0.32 22 1 22 C0.67 14.74 0.34 7.48 0 0 Z " fill="#F6FA20" transform="translate(383,234)"/>
<path d="M0 0 C2 1 2 1 3.375 3.875 C5.00156395 7.00300759 6.18074306 8.05568487 9 10 C9 10.66 9 11.32 9 12 C10.98 10.68 12.96 9.36 15 8 C15.33 8.33 15.66 8.66 16 9 C17.32 7.68 18.64 6.36 20 5 C20.66 5.33 21.32 5.66 22 6 C21.01 6.33 20.02 6.66 19 7 C19 7.66 19 8.32 19 9 C20.32 9.33 21.64 9.66 23 10 C19.0662836 13.14697312 15.41572379 13.74913382 10.51171875 13.6171875 C6.57033518 12.64869823 4.74963237 10.32718774 2.27734375 7.23828125 C0.89027654 4.80773228 0.391041 2.75659763 0 0 Z " fill="#2DA6D8" transform="translate(259,435)"/>
<path d="M0 0 C2.9098301 1.45491505 3.05996244 3.13833692 4.125 6.1875 C6.03871879 12.62130832 6.37388665 18.67986241 6.375 25.375 C6.3764502 26.3136792 6.37790039 27.2523584 6.37939453 28.21948242 C6.2955499 33.50875971 5.7236056 37.99464934 4 43 C3.67 43 3.34 43 3 43 C2.97311849 41.35425434 2.95365877 39.70838587 2.9375 38.0625 C2.92589844 37.14597656 2.91429687 36.22945312 2.90234375 35.28515625 C3 33 3 33 4 32 C4.0989294 29.83519203 4.129711 27.66706215 4.125 25.5 C4.12886719 23.72109375 4.12886719 23.72109375 4.1328125 21.90625 C4.33210219 19.10740578 4.33210219 19.10740578 3 18 C2.92773498 16.14712498 2.9161878 14.29166122 2.9375 12.4375 C2.94652344 11.42558594 2.95554687 10.41367188 2.96484375 9.37109375 C2.97644531 8.58863281 2.98804688 7.80617187 3 7 C2.34 7 1.68 7 1 7 C0.67 4.69 0.34 2.38 0 0 Z " fill="#C9D1A3" transform="translate(368,149)"/>
<path d="M0 0 C3.26008643 3.16952847 6.22237877 6.39937989 9 10 C5.02958963 10.22057835 3.76687864 9.88343932 0 8 C-0.33 13.94 -0.66 19.88 -1 26 C-1.33 26 -1.66 26 -2 26 C-2.05849554 22.79174438 -2.09376162 19.58362767 -2.125 16.375 C-2.15013672 15.01955078 -2.15013672 15.01955078 -2.17578125 13.63671875 C-2.21201643 8.67249848 -1.96444146 4.65588093 0 0 Z " fill="#42A6D2" transform="translate(304,347)"/>
<path d="M0 0 C4.875 4.75 4.875 4.75 6 7 C4.02 7 2.04 7 0 7 C0 14.92 0 22.84 0 31 C-0.33 31 -0.66 31 -1 31 C-2.59576393 21.15945576 -2.7708937 10.83829833 -1 1 C-0.67 0.67 -0.34 0.34 0 0 Z " fill="#3EA0C3" transform="translate(165,393)"/>
<path d="M0 0 C0.33 0.99 0.66 1.98 1 3 C2.98 2.34 4.96 1.68 7 1 C6.25 2.9375 6.25 2.9375 5 5 C2.875 5.75 2.875 5.75 1 6 C1 6.66 1 7.32 1 8 C-0.32 8.33 -1.64 8.66 -3 9 C-3.33 10.32 -3.66 11.64 -4 13 C-6.03435531 9.27034861 -7 7.33094958 -7 3 C-4.525 3.495 -4.525 3.495 -2 4 C-1.34 2.68 -0.68 1.36 0 0 Z " fill="#35AEE3" transform="translate(376,420)"/>
<path d="M0 0 C2 2 2 2 2.22705078 4.06298828 C2.21657715 4.89040527 2.20610352 5.71782227 2.1953125 6.5703125 C2.18886719 7.46621094 2.18242187 8.36210937 2.17578125 9.28515625 C2.15902344 10.22230469 2.14226562 11.15945312 2.125 12.125 C2.11597656 13.06988281 2.10695313 14.01476562 2.09765625 14.98828125 C2.07404522 17.32577292 2.04111516 19.66276123 2 22 C1.34 22 0.68 22 0 22 C0 25.3 0 28.6 0 32 C-0.99 32.495 -0.99 32.495 -2 33 C-1.34 22.11 -0.68 11.22 0 0 Z " fill="#D2DC85" transform="translate(382,234)"/>
<path d="M0 0 C0 0.33 0 0.66 0 1 C-0.59949463 1.05534912 -1.19898926 1.11069824 -1.81665039 1.16772461 C-4.56543572 1.42253147 -7.31396606 1.67999616 -10.0625 1.9375 C-11.47692383 2.06801758 -11.47692383 2.06801758 -12.91992188 2.20117188 C-17.97170607 2.67642683 -22.98476739 3.22789068 -28 4 C-28 4.66 -28 5.32 -28 6 C-29.32 6 -30.64 6 -32 6 C-32 6.66 -32 7.32 -32 8 C-33.98 8.66 -35.96 9.32 -38 10 C-38 9.01 -38 8.02 -38 7 C-37.01 7 -36.02 7 -35 7 C-35 6.34 -35 5.68 -35 5 C-34.37351562 4.79503906 -33.74703125 4.59007813 -33.1015625 4.37890625 C-32.28429687 4.10949219 -31.46703125 3.84007813 -30.625 3.5625 C-29.81289063 3.29566406 -29.00078125 3.02882813 -28.1640625 2.75390625 C-25.98968201 2.04820271 -25.98968201 2.04820271 -24 1 C-16.02793002 -0.05169001 -8.02725756 -0.12809454 0 0 Z " fill="#F1F638" transform="translate(320,114)"/>
<path d="M0 0 C0 0.33 0 0.66 0 1 C-0.99628418 1.029729 -0.99628418 1.029729 -2.01269531 1.06005859 C-19.12075413 1.44605715 -19.12075413 1.44605715 -36 4 C-36 3.34 -36 2.68 -36 2 C-24.55920587 -1.90027073 -11.8512935 -1.72382451 0 0 Z " fill="#CED591" transform="translate(328,116)"/>
<path d="M0 0 C5.07909274 3.24497592 7.45110283 7.2802773 9 13 C9.02848472 15.8722091 8.6179049 18.16793587 8 21 C7.67 21 7.34 21 7 21 C7 18.03 7 15.06 7 12 C6.01 11.67 5.02 11.34 4 11 C4 10.01 4 9.02 4 8 C3.401875 7.87625 2.80375 7.7525 2.1875 7.625 C0 7 0 7 -3 5 C-2.67 4.34 -2.34 3.68 -2 3 C-1.01 3 -0.02 3 1 3 C0.67 2.01 0.34 1.02 0 0 Z " fill="#33A1D2" transform="translate(276,422)"/>
<path d="M0 0 C2 2 2 2 2.25 5.375 C2.014311 8.7924905 1.78529824 10.20512416 0 13 C-3.9397627 15.81784352 -8.1025644 17.61217945 -13 17 C-8.66563467 12.04643963 -8.66563467 12.04643963 -5.3125 11.8125 C-4.549375 11.874375 -3.78625 11.93625 -3 12 C-0.50494038 9.50494038 -0.64051624 8.32671112 -0.375 4.875 C-0.30023438 3.96492188 -0.22546875 3.05484375 -0.1484375 2.1171875 C-0.09945313 1.41851562 -0.05046875 0.71984375 0 0 Z " fill="#3BA4CA" transform="translate(393,428)"/>
<path d="M0 0 C-1.36983503 3.16115776 -1.9890638 3.9927092 -5 6 C-5 7.32 -5 8.64 -5 10 C-6.65 10.33 -8.3 10.66 -10 11 C-9.67 10.01 -9.34 9.02 -9 8 C-10.65 8.33 -12.3 8.66 -14 9 C-10.44113418 5.11760093 -5.62095916 0 0 0 Z " fill="#F8F821" transform="translate(286,51)"/>
<path d="M0 0 C1.216875 0.165 2.43375 0.33 3.6875 0.5 C6.81607836 0.89454541 9.84168804 1.09869725 13 1 C10.13301658 4.49413605 8.15849852 6.28836874 3.6875 6.8125 C1.8621875 6.9053125 1.8621875 6.9053125 0 7 C0.66 6.67 1.32 6.34 2 6 C1.34 5.01 0.68 4.02 0 3 C0 2.01 0 1.02 0 0 Z " fill="#2BA8D8" transform="translate(176,433)"/>
<path d="M0 0 C4.29 0 8.58 0 13 0 C13 0.66 13 1.32 13 2 C13.58007812 2.09796875 14.16015625 2.1959375 14.7578125 2.296875 C19.99321469 3.29903119 23.75861871 4.58620531 28 8 C28.99 9.485 28.99 9.485 30 11 C27.78537326 9.93369824 25.70583833 8.81421368 23.625 7.5 C18.62298636 4.64170649 13.68195759 3.68183491 8 3 C8 2.34 8 1.68 8 1 C5.36 1 2.72 1 0 1 C0 0.67 0 0.34 0 0 Z " fill="#EDF441" transform="translate(320,115)"/>
<path d="M0 0 C3.7366235 3.22122716 5.5110003 6.2978957 7 11 C7.11576042 14.70433358 6.78052206 17.91405626 4.5625 21 C3 22 3 22 1 22 C1 21.01 1 20.02 1 19 C1.99 19 2.98 19 4 19 C4 17.68 4 16.36 4 15 C4.66 15 5.32 15 6 15 C5.67 14.01 5.34 13.02 5 12 C4.34 11.67 3.68 11.34 3 11 C2.25881795 8.68925595 1.59793673 6.35188447 1 4 C0.79375 3.195625 0.5875 2.39125 0.375 1.5625 C0.25125 1.046875 0.1275 0.53125 0 0 Z " fill="#389FC5" transform="translate(323,369)"/>
<path d="M0 0 C4.77609498 1.64178265 8.79382904 4.26546702 13 7 C12.01 7.99 11.02 8.98 10 10 C7.5625 9.25 7.5625 9.25 5 8 C4.3125 5.9375 4.3125 5.9375 4 4 C3.34 3.67 2.68 3.34 2 3 C1.67 4.32 1.34 5.64 1 7 C0 4 0 4 0 0 Z " fill="#B9C4CB" transform="translate(154,126)"/>
<path d="M0 0 C2.5 1.3125 2.5 1.3125 5 3 C5 3.99 5 4.98 5 6 C5.66 6 6.32 6 7 6 C7 7.65 7 9.3 7 11 C7.66 11 8.32 11 9 11 C9.33 14.3 9.66 17.6 10 21 C9.67 20.01 9.34 19.02 9 18 C8.34 18 7.68 18 7 18 C6.67 14.7 6.34 11.4 6 8 C5.34 8 4.68 8 4 8 C0 2.58823529 0 2.58823529 0 0 Z " fill="#E8EF4B" transform="translate(372,210)"/>
<path d="M0 0 C1.65 1.65 3.3 3.3 5 5 C3.68 4.67 2.36 4.34 1 4 C0.67 10.93 0.34 17.86 0 25 C-0.33 25 -0.66 25 -1 25 C-2.85350752 17.81765835 -3.38686358 6.77372716 0 0 Z " fill="#3F9EC6" transform="translate(93,392)"/>
<path d="M0 0 C0.33 0 0.66 0 1 0 C1 1.98 1 3.96 1 6 C1.66 6.33 2.32 6.66 3 7 C2.01 7.66 1.02 8.32 0 9 C-0.33 9.99 -0.66 10.98 -1 12 C-0.34 12 0.32 12 1 12 C1.33 13.65 1.66 15.3 2 17 C0 15.625 0 15.625 -2 14 C-2 13.34 -2 12.68 -2 12 C-2.66 12 -3.32 12 -4 12 C-4 10.68 -4 9.36 -4 8 C-3.34 8 -2.68 8 -2 8 C-1.855625 7.236875 -1.71125 6.47375 -1.5625 5.6875 C-1 3 -1 3 0 0 Z " fill="#EAF33F" transform="translate(370,192)"/>
<path d="M0 0 C0.66 0.33 1.32 0.66 2 1 C1.67257812 1.90878906 1.34515625 2.81757813 1.0078125 3.75390625 C-0.51264605 9.07551117 -0.21356993 14.44957079 -0.125 19.9375 C-0.11597656 21.00291016 -0.10695313 22.06832031 -0.09765625 23.16601562 C-0.07423414 25.77758034 -0.04143452 28.38866937 0 31 C-0.33 31 -0.66 31 -1 31 C-2.22011501 26.21714918 -2.18370633 21.52641618 -2.1875 16.625 C-2.19974609 15.8 -2.21199219 14.975 -2.22460938 14.125 C-2.23676051 9.02152506 -1.64836454 4.83433396 0 0 Z " fill="#4CA2C4" transform="translate(259,402)"/>
<path d="M0 0 C0.33 0.66 0.66 1.32 1 2 C2.64363134 2.72159424 4.31050386 3.39351421 6 4 C2.20076921 5.8996154 -1.87814183 5.37395272 -5.8125 4.0625 C-7.21209739 3.38269555 -8.60830838 2.69584581 -10 2 C-10 1.34 -10 0.68 -10 0 C-6.26840331 -1.24386556 -3.81984796 -0.77811718 0 0 Z " fill="#C5CFBF" transform="translate(229,123)"/>
<path d="M0 0 C3.65685507 4.26633091 5.8059263 7.52556033 6.25 13.1875 C6 16 6 16 4 18 C3.8046875 15.94921875 3.609375 13.8984375 3.4140625 11.84765625 C3.20910156 10.93306641 3.20910156 10.93306641 3 10 C2.34 9.67 1.68 9.34 1 9 C1.33 7.35 1.66 5.7 2 4 C1.34 4 0.68 4 0 4 C0 2.68 0 1.36 0 0 Z " fill="#399ECA" transform="translate(185,416)"/>
<path d="M0 0 C4.56048012 3.61251516 8.01665146 6.98797445 11 12 C7.125 10.25 7.125 10.25 6 8 C5.01 7.67 4.02 7.34 3 7 C3 7.66 3 8.32 3 9 C2.34 9 1.68 9 1 9 C0 2.25 0 2.25 0 0 Z " fill="#36A1D0" transform="translate(261,405)"/>
<path d="M0 0 C0.33 0 0.66 0 1 0 C1.45356243 6.46326465 0.59378942 9.60931587 -3 15 C-3.66 14.67 -4.32 14.34 -5 14 C-4.54636829 12.41531323 -4.08688548 10.83230076 -3.625 9.25 C-3.36976563 8.36828125 -3.11453125 7.4865625 -2.8515625 6.578125 C-2.0790066 4.23919428 -1.16374324 2.16557438 0 0 Z " fill="#F8F82F" transform="translate(236,103)"/>
<path d="M0 0 C0.144375 0.598125 0.28875 1.19625 0.4375 1.8125 C0.8872439 3.56150404 1.42892341 5.28677023 2 7 C0.35 7.33 -1.3 7.66 -3 8 C-3.66 9.98 -4.32 11.96 -5 14 C-5.66 14 -6.32 14 -7 14 C-5.53967505 8.68972746 -3.01679014 4.53669968 0 0 Z " fill="#F7F830" transform="translate(244,89)"/>
<path d="M0 0 C0.33 0 0.66 0 1 0 C1 2.31 1 4.62 1 7 C1.66 7 2.32 7 3 7 C3 6.34 3 5.68 3 5 C4.65 5 6.3 5 8 5 C8 4.34 8 3.68 8 3 C9.98 3 11.96 3 14 3 C11.03653214 5.47186455 8.45958311 6.66248361 4.75 7.6875 C3.41195313 8.06455078 3.41195313 8.06455078 2.046875 8.44921875 C1.37140625 8.63097656 0.6959375 8.81273437 0 9 C0 6.03 0 3.06 0 0 Z " fill="#F2F338" transform="translate(382,256)"/>
<path d="M0 0 C0.61328125 1.859375 0.61328125 1.859375 1 4 C-0.8125 6.25 -0.8125 6.25 -3 8 C-3.66 8 -4.32 8 -5 8 C-5.66 9.65 -6.32 11.3 -7 13 C-7.66 13 -8.32 13 -9 13 C-7.47987323 7.59510481 -3.72614782 4.01507372 0 0 Z " fill="#F6F832" transform="translate(254,76)"/>
<path d="M0 0 C4.67248931 2.82522609 7.65996398 5.67760044 11 10 C8.69 10.33 6.38 10.66 4 11 C4.33 9.35 4.66 7.7 5 6 C3.68 5.67 2.36 5.34 1 5 C0.67 3.35 0.34 1.7 0 0 Z " fill="#F7F72A" transform="translate(418,63)"/>
<path d="M0 0 C2 1 2 1 3.375 3.875 C5.00156395 7.00300759 6.18074306 8.05568487 9 10 C9 10.66 9 11.32 9 12 C11.64 12 14.28 12 17 12 C17 12.33 17 12.66 17 13 C13.86635065 13.51161622 11.12115428 13.64797339 8 13 C3.38929188 9.510127 0.80386021 5.73755228 0 0 Z " fill="#3C9EC2" transform="translate(259,435)"/>
<path d="M0 0 C2.64 0.66 5.28 1.32 8 2 C7.67 2.66 7.34 3.32 7 4 C3.47940432 5.17353189 0.693507 5.20146402 -3 5 C-3.66 4.34 -4.32 3.68 -5 3 C-3.35 2.67 -1.7 2.34 0 2 C0 1.34 0 0.68 0 0 Z " fill="#40AAD1" transform="translate(106,433)"/>
<path d="M0 0 C1.65 0 3.3 0 5 0 C1.59287819 3.97497544 -2.32760855 5.86793788 -7 8 C-6.34 6.35 -5.68 4.7 -5 3 C-3.68 3 -2.36 3 -1 3 C-0.67 2.01 -0.34 1.02 0 0 Z " fill="#F8F82E" transform="translate(407,249)"/>
<path d="M0 0 C-0.47986031 5.56890517 -1.29915181 10.67067568 -3 16 C-3.33 16 -3.66 16 -4 16 C-4.0810206 13.89646505 -4.13919907 11.79204048 -4.1875 9.6875 C-4.22230469 8.51574219 -4.25710938 7.34398437 -4.29296875 6.13671875 C-4 3 -4 3 -2.55078125 1.08203125 C-1 0 -1 0 0 0 Z " fill="#F5F735" transform="translate(459,174)"/>
<path d="M0 0 C4.48837049 1.25256851 7.63836665 2.73441332 11 6 C11.8125 8.25 11.8125 8.25 12 10 C7.72754004 7.2534186 3.81413925 4.36007505 0 1 C0 0.67 0 0.34 0 0 Z " fill="#ECF341" transform="translate(234,126)"/>
<path d="M0 0 C0.33 0 0.66 0 1 0 C1.19818283 6.70518586 1.30844801 12.65176798 -1 19 C-1.33 19 -1.66 19 -2 19 C-2.02688151 17.35425434 -2.04634123 15.70838587 -2.0625 14.0625 C-2.07410156 13.14597656 -2.08570313 12.22945312 -2.09765625 11.28515625 C-2 9 -2 9 -1 8 C-0.76924918 6.65252916 -0.58846937 5.29622435 -0.4375 3.9375 C-0.293125 2.638125 -0.14875 1.33875 0 0 Z " fill="#CDD88E" transform="translate(373,173)"/>
<path d="M0 0 C4.875 4.75 4.875 4.75 6 7 C4.02 7 2.04 7 0 7 C-0.33 7.66 -0.66 8.32 -1 9 C-1.09765625 2.84765625 -1.09765625 2.84765625 -1 1 C-0.67 0.67 -0.34 0.34 0 0 Z " fill="#3CA8D3" transform="translate(165,393)"/>
<path d="M0 0 C1.8125 0.125 1.8125 0.125 4 1 C5.5 3.6875 5.5 3.6875 7 7 C8.27167646 9.04855518 9.62934518 11.0149137 11 13 C10.67 13.66 10.34 14.32 10 15 C6.24351901 10.17918273 2.91214197 5.3762621 0 0 Z " fill="#E1E765" transform="translate(357,132)"/>
<path d="M0 0 C0.66 0.33 1.32 0.66 2 1 C-0.20875121 3.19602066 -2.40994275 5.26080867 -5 7 C-7.9375 6.875 -7.9375 6.875 -10 6 C-7.31100548 2.67830089 -3.94687492 1.43522725 0 0 Z " fill="#F5F731" transform="translate(296,45)"/>
<path d="M0 0 C1.76462683 3.08809695 2 4.23312136 2 8 C3.32 8.33 4.64 8.66 6 9 C5.67 10.98 5.34 12.96 5 15 C1.5400423 12.32639632 0.93027761 9.15046933 0 5 C-0.125 2.0625 -0.125 2.0625 0 0 Z " fill="#3BA0CA" transform="translate(303,373)"/>
<path d="M0 0 C3.55389242 3.70840948 3.76365909 7.03684082 4 12 C3.01 13.485 3.01 13.485 2 15 C2 12.03 2 9.06 2 6 C1.01 5.67 0.02 5.34 -1 5 C-0.67 3.35 -0.34 1.7 0 0 Z " fill="#3D9AC2" transform="translate(281,428)"/>
<path d="M0 0 C2 2 2 2 2.3125 5.875 C2.2447898 8.73966214 2.04049306 9.92637626 0.625 12.5 C-1 14 -1 14 -3 14 C-2.67 12.35 -2.34 10.7 -2 9 C-1.34 9 -0.68 9 0 9 C0 6.03 0 3.06 0 0 Z " fill="#439EC3" transform="translate(117,421)"/>
<path d="M0 0 C0.66 0.66 1.32 1.32 2 2 C1.625 4.125 1.625 4.125 1 6 C1.99 6 2.98 6 4 6 C4 6.66 4 7.32 4 8 C4.66 8.33 5.32 8.66 6 9 C1.75153925 8.52794881 -0.26819288 6.11122478 -3 3 C-3 2.34 -3 1.68 -3 1 C-2.01 0.67 -1.02 0.34 0 0 Z " fill="#3AA2CF" transform="translate(374,435)"/>
<path d="M0 0 C2.64752004 2.57784846 4.94432065 4.91648098 7 8 C4.69 8.33 2.38 8.66 0 9 C0.66 8.01 1.32 7.02 2 6 C1.01 5.34 0.02 4.68 -1 4 C-0.67 2.68 -0.34 1.36 0 0 Z " fill="#34A4D1" transform="translate(313,357)"/>
<path d="M0 0 C1.43088528 2.86177057 0.59991697 4.93375773 0 8 C-1.32 7.67 -2.64 7.34 -4 7 C-4.33 5.35 -4.66 3.7 -5 2 C-4.01 2.33 -3.02 2.66 -2 3 C-1.34 2.01 -0.68 1.02 0 0 Z " fill="#D1DA92" transform="translate(259,149)"/>
<path d="M0 0 C3.67230705 3.07999946 4.56802365 5.2482602 5 10 C4.01 10 3.02 10 2 10 C2 9.34 2 8.68 2 8 C1.34 7.67 0.68 7.34 0 7 C0.33 6.01 0.66 5.02 1 4 C0.61067144 1.85744207 0.61067144 1.85744207 0 0 Z " fill="#37A3D2" transform="translate(112,413)"/>
<path d="M0 0 C2.97 0.495 2.97 0.495 6 1 C1.375 5.875 1.375 5.875 -2 7 C-1.42415568 4.61435923 -0.77772405 2.33317216 0 0 Z " fill="#F7F729" transform="translate(414,242)"/>
<path d="M0 0 C2.31 0 4.62 0 7 0 C4.75 2.5625 4.75 2.5625 2 5 C-0.3125 4.8125 -0.3125 4.8125 -2 4 C-1.34 2.68 -0.68 1.36 0 0 Z " fill="#38A3D1" transform="translate(182,434)"/>
<path d="M0 0 C0.66 0 1.32 0 2 0 C2.26785714 8.03571429 2.26785714 8.03571429 0 12 C-0.19401633 10.18818595 -0.38004375 8.37551468 -0.5625 6.5625 C-0.66691406 5.55316406 -0.77132813 4.54382813 -0.87890625 3.50390625 C-0.91886719 2.67761719 -0.95882813 1.85132813 -1 1 C-0.67 0.67 -0.34 0.34 0 0 Z " fill="#FBFB16" transform="translate(457,166)"/>
<path d="M0 0 C0.66 0.33 1.32 0.66 2 1 C-1.12621626 4.39417765 -3.56541027 6.6062718 -8 8 C-6.49776416 3.79373966 -3.71449966 2.26099979 0 0 Z " fill="#D4DB85" transform="translate(276,128)"/>
<path d="M0 0 C2.31 1.98 4.62 3.96 7 6 C3.79604584 6 1.90600261 5.25664978 -1 4 C-0.67 2.68 -0.34 1.36 0 0 Z " fill="#3AA0CD" transform="translate(378,409)"/>
<path d="M0 0 C1.98 0 3.96 0 6 0 C5.34 1.98 4.68 3.96 4 6 C2.62437146 4.71034824 1.29233607 3.37310707 0 2 C0 1.34 0 0.68 0 0 Z " fill="#EFF237" transform="translate(246,136)"/>
<path d="M0 0 C1.98 0 3.96 0 6 0 C3.51047079 2.66735273 1.36591866 4.55746343 -2 6 C-1.34 4.02 -0.68 2.04 0 0 Z " fill="#ECF144" transform="translate(276,124)"/>
<path d="M0 0 C1.11375 0.3403125 1.11375 0.3403125 2.25 0.6875 C2.25 1.3475 2.25 2.0075 2.25 2.6875 C-0.72 2.6875 -3.69 2.6875 -6.75 2.6875 C-4.29511132 0.41445492 -3.41240272 -0.38777304 0 0 Z " fill="#B3BFC8" transform="translate(318.75,308.3125)"/>
<path d="M0 0 C0.33 0.66 0.66 1.32 1 2 C-0.4375 4.625 -0.4375 4.625 -2 7 C-2.99 6.67 -3.98 6.34 -5 6 C-3.35 4.02 -1.7 2.04 0 0 Z " fill="#C4CDB9" transform="translate(270,134)"/>
<path d="M0 0 C5.75 1.625 5.75 1.625 8 5 C6.68 5 5.36 5 4 5 C4 4.34 4 3.68 4 3 C2.68 3 1.36 3 0 3 C0 2.01 0 1.02 0 0 Z " fill="#CED795" transform="translate(339,120)"/>
</svg>
